<?xml version="1.0" encoding="utf-8"?>
<!-- Generator: Adobe Illustrator 16.0.0, SVG Export Plug-In . SVG Version: 6.00 Build 0)  -->
<!DOCTYPE svg PUBLIC "-//W3C//DTD SVG 1.1//EN" "http://www.w3.org/Graphics/SVG/1.1/DTD/svg11.dtd">
<svg version="1.1" xmlns="http://www.w3.org/2000/svg" xmlns:xlink="http://www.w3.org/1999/xlink" x="0px" y="0px"
	 width="402.874px" height="283.465px" viewBox="0 0 402.874 283.465" enable-background="new 0 0 402.874 283.465"
	 xml:space="preserve">
<g id="Black_Bground">
	<rect width="402.874" height="283.465"/>
</g>
<g id="Grey_Elements">
	<g>
		<g>
			<path fill-rule="evenodd" clip-rule="evenodd" fill="#B1B3B6" d="M257.375,122.625c0-0.929-14.875,4.708-14.875,4.708
				l-0.191-35.207c0,0-0.953-1.241-0.953,0.372c0,1.613-0.522,35.042-0.522,35.042l-7.042-0.25
				c-0.317-7.197,1.225-39.495,6.521-49.917c0.975-0.231,2.474-0.583,3-0.771c1.229-0.438,0.656-0.854,0.656-0.854
				s-0.375-0.312-4.204,0.744c-4.312,1.19-13.981,3.723-13.981,3.723v-5.584c2.008-0.091,1.897-0.241,2.32-0.862
				c0.424-0.62,1.208-3.292,1.208-3.292s0.144-2.272-3.562-2.521c0-7.817-0.167-13.792-0.167-14.417
				c0-0.352-0.021-1.062-0.719-1.041c-0.427-0.001-0.593,0.437-0.601,1.289c0.106,2.483-0.139,14.21-0.139,14.21
				c-1.165,0.123-3.086,1.211-3.062,2.396c0.124,0.875,0.453,2.954,1.125,3.875c0.471,0.646,0.854,0.542,2.042,0.5
				c-0.062,2.521-0.035,5.818-0.035,5.818l-14.299,5.209c0,0-0.741,1.118,1.59,0.373c2.329-0.743,5.681-2.087,5.681-2.087
				c-4.13,5.212-11.917,13.917-6.25,33.167c-0.106,2.109-2.147,5.821-1.337,8.376c1.004,3.166,8.348,4.836,6.754,3.791
				c-1.208-0.792-4.107-3.668-1.036-3.419c3.073,0.248,8.39,1.377,8.39,1.377C223.794,131.595,224,136,224,136
				c-9.533-0.743-15.058-0.202-16.963-2.931c-0.954-1.736-1.591-1.363-1.591-2.977c0-1.613,0-5.584,0-5.584l-7.884-1.32
				l-0.125-3.938c0,0,0.5-0.375,4.831-0.325c0.212-5.211-0.634-25.817,0.003-31.029c0.45-0.186,1.163-0.509,1.479-0.729
				c0.833-0.458,0.682-1.291-1.271-0.292c-3.011,1.271-8.554,3.764-8.554,3.764s-0.895-5.767-0.952-6.328s-1.099-1.52-0.953,0.744
				c0.105,2.979,0.318,6.327,0.318,6.327c-5.72,3.103-9.532,5.385-9.852,5.585c-0.528,0.242-0.775,1.647,1.555,0.283
				c0.635,3.226,3.948,16.385,4.468,19.226c0.516,2.829,1.365,4.587,1.365,4.587c1.783-0.816,2.25-1,3.443-1.174
				c1.37-0.2,2.744-0.451,2.744-0.451l0.168,3.583l-12.71-1.861l-17.604-17.368l-0.333,0.25l12.167,13.708
				c-3.814,0.746-5.669,0.804-5.669,0.804s-1.749,15.167,1.906,14.889c3.654-0.281,6.991-1.117,6.991-1.117
				s-0.714-2.885-0.318-2.978c0.955,0.093,1.908,0.65,2.544,2.231c0.635,1.582,0.476,4.615,1.984,5.546
				c0.297,4.574,2.924,12.199,4.616,14.542h62.505c0.522-0.517,1.227-1.569,2.267-3.778
				C255.211,146.214,259.204,136.305,257.375,122.625z M228.964,136.046L226.312,136l-0.209-8.514c0,0,1.835,0.27,5.647,1.014
				C230.692,131.229,228.964,136.046,228.964,136.046z"/>
		</g>
		<g>
			<path fill="#B1B3B6" d="M86.167,186.503l-4.712-0.008l-2.372,11.668h-3.359l2.408-11.646l-4.733-0.022l-2.425,11.668h-6.21
				l-0.887,4.689h6.122l-1.362,6.545h-6.144l-1.015,4.69h6.184l-2.422,11.66l4.71,0.008l2.413-11.667h3.336l-2.419,11.646
				l4.73,0.021l2.425-11.667h6.209l0.888-4.69h-6.123l1.362-6.545h6.228l0.888-4.689h-6.14L86.167,186.503z M73.355,209.397
				l1.378-6.545h3.32l-1.316,6.545H73.355z"/>
			<polygon fill="#B1B3B6" points="214.772,185.323 210.353,185.323 210.353,226.927 214.772,226.927 214.772,199.268 
				223.011,199.268 223.011,194.793 214.772,194.793 			"/>
			<path fill="#B1B3B6" d="M270.358,217.267v-13.349c0-1.735,0.39-2.965,1.171-3.671c0.692-0.641,2.001-0.979,3.789-0.979h12.375
				v-4.475H275.05c-5.961,0-9.111,3.248-9.111,9.394v13.346c0,6.146,3.446,9.394,9.967,9.394h11.947v-4.421h-11.839
				C272.103,222.505,270.358,220.89,270.358,217.267z"/>
			<path fill="#B1B3B6" d="M319.453,196.219c-2.087-1.247-5.045-1.854-9.04-1.854c-1.241,0-3.018,0.07-5.432,0.217
				c-1.425,0.085-2.59,0.146-3.486,0.179v-9.438h-4.421v41.604h4.421v-27.659h12.288c2.037,0,3.485,0.423,4.304,1.255
				c0.826,0.842,1.244,2.309,1.244,4.358v22.046h4.421v-22.15C323.752,200.779,322.304,197.897,319.453,196.219z"/>
			<path fill="#B1B3B6" d="M258.055,206.716v-0.882c0-4.548-0.967-7.555-2.955-9.189c-1.513-1.247-4.088-1.852-7.869-1.852
				l-5.849-0.001c-3.256,0-5.75,0.79-7.411,2.348c-1.721,1.616-2.594,4.145-2.594,7.514v12.52c0,3.135,0.953,5.58,2.83,7.267
				c1.834,1.65,4.362,2.487,7.513,2.487h16.334v-4.421h-16.762c-2.245,0-3.717-0.512-4.39-1.545c-0.274-0.405-1.09-1.647-1.105-4.43
				l0.005-0.011v-4.853l-0.004,0.001l-0.001-7.463c0-1.926,0.492-3.2,1.498-3.896c0.623-0.427,1.952-0.936,4.746-0.936h5.885
				c5.059,0,5.708,2.254,5.708,4.219c0,0.059-0.002,0.121-0.005,0.187l-13.434,5.944v4.862L258.055,206.716z"/>
		</g>
		<path fill-rule="evenodd" clip-rule="evenodd" fill="#B1B3B6" d="M284.368,125.338l-0.402,26.081l4.414,0.402v-9.23
			c0,0,0.601-11.735,0.402-14.844c2.707-24.076,38.418-47.648,40.525-48.953c0,0,5.111-3.502,5.236-4.169
			c2.707-6.922-34.526-10.877-37.736-2.653C292.793,77.291,284.368,119.12,284.368,125.338z"/>
		<path fill-rule="evenodd" clip-rule="evenodd" fill="#B1B3B6" d="M282.331,136.994c-1.147-25.309-6.423-43.124-6.423-43.124
			s-0.689-3.595-2.141-3.364c-7.112,0.153-14.07,10.628-15.904,15.291c-1.835,4.665,0.536,6.347,2.752,7.646
			c10.092,8.411,17.127,21.562,17.434,22.633c0.305,1.069,0.61,16.209,0.61,16.209l3.671-0.304
			C282.331,151.981,282.712,141.659,282.331,136.994z"/>
		<path fill="#B1B3B6" d="M170.344,92.875c0,0-0.125-1.016-0.141-1.391c-0.047-0.891,0.087-0.948,0.109-1l0.125-0.156
			c0.083-0.127,0.512-0.791,1.282-1.945c0.536-0.805,0.83-1.38,1.006-1.746l0.167-0.349c0.01-0.024,0.022-0.044,0.033-0.063
			c0.126-0.222,0.317-0.413,0.888-1.143c0.572-0.73,2.825-3.142,4.602-5.459c1.778-2.316,4.189-5.841,5.143-7.522
			c0.953-1.682,2.381-4.952,2.19-8.633c-0.19-3.681-2.73-5.81-2.73-5.81s-0.475-2.506-3.745-4.632
			c-2.754-1.792-5.714-0.763-5.714-0.763s-1.365-1.777-3.682-1.713c-2.317,0.063-3.46,1.649-3.46,1.649s-2.506-1.49-5.68,0.19
			c-2.738,1.45-3.079,2.793-3.46,3.461c-1.968,1.016-3.238,3.047-3.84,5.045c-0.603,2-0.889,4.255,0.73,8.508
			s5.078,8.601,6.285,10.22c1.206,1.619,4.983,6.348,5.157,6.555c0.177,0.206,2.048,3.443,2.223,3.729
			c0.153,0.251,0.168,0.266,0.325,0.484c0,0.002,0.203,0.234,0.203,0.234l-0.031,2.281c0,0-0.438,0-0.434,0.599
			c0.007,0.341-0.009,0.746,0,1.031c0.005,0.178,0.005,0.303,0.021,0.428c-0.046,0.055-0.234,0.707,0.319,0.707
			c0.104-0.008,0.601,0.029,1.031,0.016c0.433-0.012,1.184,0.001,1.375-0.062c0.297,0,0.25-0.5,0.062-0.75
			c0-0.189-0.004-0.403-0.016-0.656c-0.014-0.247,0.071-0.651,0.031-0.859C170.743,92.891,170.344,92.875,170.344,92.875z
			 M168.672,92.891l-0.031-2.109c0.08-0.118,0.078-0.094,0.183-0.1s0.098,0.396,0.098,0.396l0.703-0.016
			c0,0,0.031-0.359,0.088-0.355s0.178-0.066,0.178-0.066s0.048,1.193,0.047,2.234C169.671,92.838,168.953,92.891,168.672,92.891z"/>
		<path fill="#B1B3B6" d="M91.041,116.112c0,0-0.086-0.702-0.097-0.961c-0.032-0.616,0.06-0.655,0.076-0.691l0.086-0.108
			c0.057-0.088,0.354-0.546,0.886-1.344c0.371-0.557,0.574-0.955,0.696-1.208l0.115-0.241c0.007-0.017,0.015-0.031,0.023-0.044
			c0.087-0.153,0.219-0.285,0.614-0.79c0.396-0.505,1.953-2.172,3.182-3.774c1.229-1.601,2.896-4.038,3.555-5.201
			c0.66-1.163,1.646-3.423,1.515-5.969c-0.132-2.545-1.887-4.017-1.887-4.017s-0.329-1.732-2.589-3.202
			c-1.904-1.239-3.95-0.528-3.95-0.528s-0.944-1.229-2.546-1.185c-1.602,0.043-2.392,1.14-2.392,1.14s-1.733-1.03-3.927,0.132
			c-1.893,1.002-2.129,1.931-2.393,2.393c-1.361,0.702-2.239,2.107-2.655,3.488c-0.417,1.383-0.614,2.942,0.505,5.882
			c1.12,2.941,3.51,5.947,4.345,7.066c0.833,1.12,3.445,4.389,3.565,4.532c0.122,0.143,1.416,2.38,1.537,2.578
			c0.105,0.174,0.116,0.184,0.224,0.335c0,0.001,0.14,0.161,0.14,0.161l-0.021,1.578c0,0-0.303,0-0.3,0.414
			c0.004,0.236-0.007,0.516,0,0.713c0.003,0.123,0.003,0.209,0.014,0.296c-0.032,0.038-0.162,0.489,0.22,0.489
			c0.072-0.006,0.416,0.02,0.713,0.01c0.299-0.008,0.819,0.001,0.951-0.043c0.205,0,0.173-0.345,0.043-0.519
			c0-0.131-0.003-0.279-0.011-0.453c-0.009-0.171,0.05-0.45,0.022-0.594C91.317,116.122,91.041,116.112,91.041,116.112z
			 M89.885,116.122l-0.021-1.458c0.056-0.081,0.054-0.065,0.126-0.069c0.073-0.004,0.068,0.274,0.068,0.274l0.486-0.011
			c0,0,0.022-0.249,0.061-0.246s0.123-0.046,0.123-0.046s0.033,0.825,0.032,1.545C90.576,116.086,90.08,116.122,89.885,116.122z"/>
	</g>
</g>
<g id="Red_Elements">
	<g>
		<g>
			<path fill="#A90F3D" d="M160.432,185.162c-1.353,0-2.798,0.818-2.798,3.12c0,1.7,1.099,2.798,2.798,2.798
				c1.76,0,2.854-1.113,2.854-2.906c0-0.742-0.258-1.441-0.749-2.025C161.991,185.502,161.263,185.162,160.432,185.162z"/>
			<g>
				<path fill="#A90F3D" d="M121.143,196.177c-2.156-1.237-5.177-1.838-9.235-1.838c-1.313,0-3.107,0.071-5.487,0.217
					c-1.362,0.083-2.473,0.143-3.324,0.176v-9.381h-4.419v31.957c0,3.043,1.005,5.442,2.99,7.131
					c1.919,1.634,4.411,2.463,7.406,2.463h6.473c3.455,0,5.936-0.75,7.585-2.292c1.652-1.545,2.49-4.074,2.49-7.516v-12.519
					C125.622,200.634,124.106,197.805,121.143,196.177z M115.599,222.479h-6.098c-5.675,0-6.404-2.821-6.404-5.278v-17.853h12.556
					c3.836,0,5.548,1.646,5.548,5.334v12.144c0,2.158-0.403,3.707-1.164,4.481C119.283,222.074,117.749,222.479,115.599,222.479z"/>
				<path fill="#A90F3D" d="M134.95,204.429V226.9h4.474v-22.475c0-2.248,0.547-3.741,1.585-4.411
					c0.596-0.354,1.926-0.776,4.885-0.776l1.769,0.019v-4.491h-3.345C138.189,194.767,134.95,198.107,134.95,204.429z"/>
				<rect x="158.275" y="194.767" fill="#A90F3D" width="4.421" height="32.134"/>
				<path fill="#A90F3D" d="M174.005,202.617c0,3.938,0.876,6.667,2.706,8.372c1.425,1.258,3.525,1.895,6.245,1.895
					c0.675,0,1.704-0.046,3.059-0.137c1.309-0.086,2.277-0.131,2.88-0.131c1.736,0,2.995,0.312,3.72,0.905
					c0.928,0.796,1.398,2.358,1.398,4.642c0,3.026-1.187,4.316-3.97,4.316h-16.038v4.422h15.978c5.45,0,8.452-3.103,8.452-8.738
					c0-3.871-1.015-6.655-3.005-8.265c-1.514-1.254-3.704-1.862-6.696-1.862c-0.671,0-1.641,0.035-2.964,0.108
					c-1.244,0.07-2.155,0.106-2.707,0.106c-2.054,0-3.057-0.376-3.487-0.658c-0.775-0.559-1.151-1.606-1.151-3.201
					c0-2.768,0.58-3.813,0.928-4.189c0.329-0.358,1.277-0.959,3.923-0.959h15.373v-4.474h-15.425
					C179.781,194.767,174.005,195.786,174.005,202.617z"/>
			</g>
		</g>
		<rect x="58.739" y="164.594" fill-rule="evenodd" clip-rule="evenodd" fill="#A90F3D" width="267.751" height="1.807"/>
		<rect x="58.739" y="151.318" fill-rule="evenodd" clip-rule="evenodd" fill="#A90F3D" width="267.751" height="1.808"/>
		<path fill="#A90F3D" d="M271.915,136.935l0.322,0.005l0.472-1.178h-1.067l-2.299-3.63h-1.689l-1.409-12.334h0.844v-1.148h-0.844
			l-1.089-9.037h3.208l1.418-2.79h-1.003l-0.028-3.154l-1.662-0.223v-0.576l1.691-1.72v-8.606l21.012-39.23l8.615-5.866
			c0.391,0.491,1.544,0.504,2.01-0.499c0.333-0.774,0.156-1.515-0.854-1.792c-0.844-0.223-1.469,0.509-1.469,0.509
			c-3.944,0.214-12.976,1.683-12.976,1.683l-2.076,3.25l0.667,3.062l-20.282,27.982l-1.69,5.165l-0.845-3.73l-3.517-0.981l-3-0.509
			l-2.5,0.764l-2.167,2.928l-1.493,5.744l-3.662,2.01v6.885l3.662,1.434v3.528l1.727,1.943h-5.13l1.418,2.79h4.129l-2.427,22.233
			h-1.599l-1.636,3.915h-1.177l0.472,1.178l0.424-0.006v15.854h3.099l0.035-10.947c0,0,2.032-3.397,3.046-4.542
			c-0.057,2.236,0,2.294,0,2.294l0.282,0.859v12.23h1.969v-11.944l1.692-3.729h10.015l4.507,6.814V153h2.817L271.915,136.935z
			 M254.478,120.375v-0.015l0.757,0.418l-4.559,6.784l-0.242-0.238l0.715-6.949H254.478z M251.298,118.46l0.714-7.329l3.04,7.023
			l-0.554,0.306H251.298z M256.631,121.304h1.265h1.057l4.095,8.175l-1.11,1.795h-8.209l-1.165-1.849L256.631,121.304z
			 M264.94,127.611l-4.536-6.75l0.909-0.502v0.015h3.438l0.655,6.776L264.94,127.611z M260.792,118.183l3.132-7.236l0.688,7.513
			h-3.317L260.792,118.183z M263.341,109.613l-3.485,8.053l-0.252-0.139h-1.708h-1.709l-0.2,0.11l-3.464-8.005l5.345-0.02H263.341z"
			/>
		<path fill="#A90F3D" d="M193.869,151.938h4.778c-11.407-7.125-29.401-24.537-43.271-39.312c-0.875-4.375-1.267-8.162-2-11.75
			c12.126,16.021,25.362,28.005,35.32,36.009c7.554,6.072,14.123,10.482,18.303,13.115c1.382,0.871,2.321,1.483,3.015,1.938h6.892
			c-0.443-0.214-0.848-0.389-1.043-0.504l0.002-0.005c-0.009-0.002-0.331-0.176-0.465-0.242c-4.338-2.33-38.021-21.27-63.852-58.621
			c-1.172-2.065-1.906-3.912-2.672-5.69c0-7.121,0.25-9.5,0.25-9.5l3.205-3.866l-29.915-2.798l-6.866,5.849l2.206,1.653v9.155
			c0,0-1.79,6.097-2.88,12.757l-0.656,7.682c-3.716,7.063-9.623,17.851-17.898,31.687c-2.203,3.683-4.328,6.275-6.359,7.779
			c-2.951-2.026-5.184-5.557-6.714-8.706c-0.564-3.478-1.654-6.878-2.506-8.854c0-2.342-0.08-3.175-0.08-3.175l1.048-1.002
			l-9.826-0.919l-2.255,1.922l0.724,0.542v3.008c0,0-1.851,8.865-1.931,9.91c-0.081,1.044-0.243,10.222-0.243,10.222l-0.012,1.405
			l5.5-0.042c0.083-3.583,0.249-8.986,0.349-9.701c0.065-0.46,1.457-0.615,2.859-0.576c0.872,1.864,1.907,3.662,3.112,5.125
			c0.07,1.82,0.048,3.942,0.096,5.235L84,151.625l-0.079-2.173c0.342,0.125,0.69,0.229,1.05,0.29
			c0.319,0.054,0.64,0.081,0.962,0.081c1.305,0,2.781-0.379,4.319-1.174c1.269,0.715,2.658,1.18,4.173,1.277
			c0.198,0.013,0.397,0.019,0.597,0.019c5.149,0,10.77-3.663,16.703-11.563c-0.328,5.678-0.642,14.118-0.642,14.118l19.229,0.062
			l-0.125-31.75c0,0,8.25-0.375,15.521,0.083c0,7.121,0.817,31.704,0.817,31.704l14.162-0.038c0,0-2.083-17.883-4.392-34.839
			C173.128,135.412,185.004,146.484,193.869,151.938z M74.16,138.516c0,0-0.139-2.045,0.205-3.915
			c0.366,1.221,0.825,2.608,1.379,4.041C74.841,138.574,74.16,138.516,74.16,138.516z M76.863,138.722
			c-0.863-2.174-1.514-4.29-1.951-5.877c0.369-0.735,0.902-1.25,1.686-1.262c2.009,0.047,2.87,1.674,3.3,7.269
			C79.325,138.873,78.06,138.804,76.863,138.722z M78.027,141.383c0.979,0.105,1.757,0.302,1.775,0.546
			c0.015,0.202,0.061,1.321,0.118,2.769C79.225,143.687,78.595,142.556,78.027,141.383z M85.138,148.756
			c-0.44-0.074-0.866-0.21-1.279-0.396l-0.403-7.178c1.429,2.509,3.291,5.008,5.604,6.693
			C87.707,148.672,86.396,148.969,85.138,148.756z M111.977,134.045c-0.016,0.268-0.031,0.534-0.046,0.8
			c-5.539,8.494-11.56,14.47-17.438,14.084c-1.14-0.073-2.208-0.385-3.204-0.873c2.36-1.487,4.806-3.951,6.962-7.556
			c6.593-11.023,11.701-19.537,15.385-25.863L111.977,134.045z M143.812,100.188c-2.199-2.449-5.173-5.673-7-7.75
			C141.25,91.438,143.5,95.75,143.812,100.188z M130.017,112.758c0,0-1.142-13.508,3.295-18.008c3.065,3.499,7.882,7.475,12,12
			c0.523,3.129,0.678,5.129,0.887,7.024C134.5,113,130.017,112.758,130.017,112.758z"/>
	</g>
</g>
</svg>
