<svg width="277" height="183" xmlns="http://www.w3.org/2000/svg">
 <g>
  <title>Layer 1</title>
  <g id="Grey_Elements">
   <g id="svg_1">
    <g id="svg_2">
     <path id="svg_3" d="m198.875,77.875c0,-0.929001 -14.875,4.708 -14.875,4.708l-0.190994,-35.207001c0,0 -0.953003,-1.240997 -0.953003,0.372002c0,1.612999 -0.522003,35.042 -0.522003,35.042l-7.041992,-0.25c-0.317001,-7.196999 1.224991,-39.495003 6.520996,-49.917c0.974991,-0.231003 2.473999,-0.583 3,-0.771004c1.229004,-0.437996 0.655991,-0.853996 0.655991,-0.853996s-0.375,-0.312004 -4.203995,0.743996c-4.311996,1.190002 -13.981003,3.723 -13.981003,3.723l0,-5.584c2.008011,-0.090996 1.897003,-0.240997 2.320007,-0.862c0.423996,-0.619995 1.207993,-3.292 1.207993,-3.292s0.143997,-2.271996 -3.561996,-2.520996c0,-7.817001 -0.167007,-13.792 -0.167007,-14.417c0,-0.352001 -0.020996,-1.062 -0.718994,-1.041c-0.427002,-0.000999 -0.593002,0.437 -0.600998,1.288998c0.106003,2.483002 -0.139008,14.210003 -0.139008,14.210003c-1.164993,0.123001 -3.085999,1.210999 -3.061996,2.395996c0.124008,0.875 0.453003,2.954002 1.125,3.875c0.471008,0.646004 0.854004,0.542 2.042007,0.5c-0.061996,2.521004 -0.035004,5.818001 -0.035004,5.818001l-14.298996,5.209c0,0 -0.740997,1.118004 1.589996,0.373001c2.328995,-0.742996 5.681,-2.086998 5.681,-2.086998c-4.130005,5.211998 -11.917007,13.917 -6.25,33.167c-0.106003,2.109001 -2.147003,5.820999 -1.337006,8.375999c1.003998,3.165993 8.348007,4.836006 6.753998,3.790993c-1.207993,-0.791992 -4.106995,-3.667992 -1.035995,-3.418991c3.072998,0.248001 8.389999,1.376999 8.389999,1.376999c0.10701,4.222 0.313004,8.626999 0.313004,8.626999c-9.533005,-0.742996 -15.057999,-0.201996 -16.962997,-2.931c-0.95401,-1.736008 -1.591003,-1.363007 -1.591003,-2.977005c0,-1.612991 0,-5.583992 0,-5.583992l-7.884003,-1.32l-0.125,-3.938004c0,0 0.5,-0.375 4.831009,-0.324997c0.21199,-5.211006 -0.634003,-25.817001 0.002991,-31.028999c0.449997,-0.186005 1.16301,-0.509003 1.479004,-0.729004c0.832993,-0.458 0.682007,-1.291 -1.270996,-0.292c-3.011002,1.271004 -8.554001,3.764 -8.554001,3.764s-0.895004,-5.766998 -0.951996,-6.328003s-1.099014,-1.519997 -0.953003,0.744003c0.104996,2.978996 0.317993,6.327003 0.317993,6.327003c-5.720001,3.102997 -9.531998,5.384995 -9.852005,5.584999c-0.528,0.241997 -0.774994,1.646996 1.555008,0.282997c0.634995,3.225998 3.947998,16.385002 4.468002,19.225998c0.515991,2.829002 1.36499,4.587006 1.36499,4.587006c1.783005,-0.816002 2.25,-1 3.443008,-1.174004c1.369995,-0.199997 2.744003,-0.450996 2.744003,-0.450996l0.167999,3.583l-12.710007,-1.861l-17.604004,-17.368004l-0.332993,0.25l12.166992,13.708c-3.813995,0.746002 -5.668991,0.804001 -5.668991,0.804001s-1.749008,15.166992 1.905991,14.888992c3.654007,-0.280991 6.991013,-1.116989 6.991013,-1.116989s-0.714005,-2.88501 -0.318008,-2.977997c0.955002,0.092987 1.908005,0.649994 2.544006,2.230988c0.634995,1.582001 0.475998,4.615005 1.983994,5.546005c0.296997,4.574005 2.923996,12.199005 4.615997,14.542007l62.505005,0c0.522003,-0.517014 1.227005,-1.569 2.266998,-3.778c0.636002,-1.675003 4.629013,-11.584015 2.800003,-25.264008zm-28.410995,13.421005l-2.652008,-0.046005l-0.209,-8.514c0,0 1.835007,0.269997 5.647003,1.014c-1.057999,2.729004 -2.785995,7.546005 -2.785995,7.546005z" fill="#B1B3B6" clip-rule="evenodd" fill-rule="evenodd"/>
    </g>
    <g id="svg_4">
     <path id="svg_5" d="m27.667,141.753006l-4.711998,-0.007996l-2.372002,11.667999l-3.359001,0l2.408005,-11.645996l-4.733002,-0.022003l-2.425003,11.667999l-6.209999,0l-0.887001,4.688995l6.122002,0l-1.362,6.544998l-6.144001,0l-1.014999,4.690002l6.184002,0l-2.422005,11.660004l4.709999,0.007996l2.413002,-11.666992l3.335999,0l-2.418999,11.645996l4.730003,0.020996l2.424995,-11.666992l6.209,0l0.888,-4.690002l-6.123001,0l1.362007,-6.544998l6.227997,0l0.888,-4.688995l-6.139999,0l2.419998,-11.661011zm-12.811996,22.893997l1.377998,-6.544998l3.32,0l-1.316002,6.544998l-3.381996,0z" fill="#B1B3B6"/>
     <polygon id="svg_6" points="156.272 140.573 151.853 140.573 151.853 182.177 156.272 182.177 156.272 154.518 164.511 154.518 164.511 150.043 156.272 150.043" fill="#B1B3B6"/>
     <path id="svg_7" d="m211.858002,172.516998l0,-13.348999c0,-1.735001 0.389984,-2.964996 1.17099,-3.671005c0.692017,-0.640991 2.001007,-0.978989 3.789001,-0.978989l12.375,0l0,-4.475006l-12.643005,0c-5.960999,0 -9.110992,3.248001 -9.110992,9.393997l0,13.346008c0,6.145996 3.445984,9.393997 9.96698,9.393997l11.947021,0l0,-4.421005l-11.83902,0c-3.91098,-0.000992 -5.655975,-1.615997 -5.655975,-5.238998z" fill="#B1B3B6"/>
     <path id="svg_8" d="m260.953003,151.468994c-2.087006,-1.247009 -5.045013,-1.854004 -9.040009,-1.854004c-1.240997,0 -3.018005,0.070007 -5.432007,0.216995c-1.424988,0.085007 -2.589996,0.146011 -3.485992,0.179001l0,-9.438004l-4.42099,0l0,41.604004l4.42099,0l0,-27.658997l12.287994,0c2.037018,0 3.485016,0.423004 4.304016,1.255005c0.825989,0.841995 1.243988,2.30899 1.243988,4.358002l0,22.04599l4.421021,0l0,-22.149994c0,-3.997986 -1.448029,-6.87999 -4.299011,-8.557999z" fill="#B1B3B6"/>
     <path id="svg_9" d="m199.554993,161.966003l0,-0.882004c0,-4.548004 -0.96701,-7.554993 -2.955002,-9.188995c-1.513,-1.247009 -4.087997,-1.852005 -7.869003,-1.852005l-5.848999,-0.000992c-3.255997,0 -5.75,0.789993 -7.410995,2.347992c-1.721008,1.615997 -2.594009,4.145004 -2.594009,7.514008l0,12.519989c0,3.13501 0.953003,5.580002 2.830002,7.266998c1.834,1.650009 4.362,2.487 7.513,2.487l16.334,0l0,-4.42099l-16.761993,0c-2.244995,0 -3.716995,-0.512009 -4.389999,-1.544998c-0.274002,-0.404999 -1.089996,-1.647003 -1.104996,-4.430008l0.00499,-0.011002l0,-4.852997l-0.003998,0.001007l-0.000992,-7.463013c0,-1.925995 0.491989,-3.199997 1.497986,-3.895996c0.623001,-0.427002 1.952011,-0.936005 4.746002,-0.936005l5.88501,0c5.05899,0 5.707993,2.254013 5.707993,4.219009c0,0.05899 -0.001999,0.121002 -0.005005,0.186996l-13.43399,5.944l0,4.862l17.860001,-7.869995z" fill="#B1B3B6"/>
    </g>
    <path id="svg_10" d="m225.868011,80.587997l-0.402008,26.081009l4.414001,0.401993l0,-9.229996c0,0 0.601013,-11.735001 0.402008,-14.844002c2.707001,-24.076004 38.417999,-47.648003 40.524994,-48.953003c0,0 5.110992,-3.501999 5.235992,-4.168999c2.707001,-6.921997 -34.526001,-10.876999 -37.735992,-2.653c-4.014008,5.319 -12.438995,47.148003 -12.438995,53.365997z" fill="#B1B3B6" clip-rule="evenodd" fill-rule="evenodd"/>
    <path id="svg_11" d="m223.830994,92.244003c-1.147003,-25.309006 -6.423004,-43.124001 -6.423004,-43.124001s-0.688995,-3.595001 -2.140991,-3.364006c-7.112,0.153 -14.070007,10.628006 -15.904022,15.291c-1.834991,4.665001 0.536011,6.347 2.752014,7.646004c10.09201,8.410995 17.127014,21.562004 17.43399,22.633003c0.305023,1.069 0.610016,16.209 0.610016,16.209l3.67099,-0.304001c0.001007,0 0.382019,-10.322006 0.001007,-14.987z" fill="#B1B3B6" clip-rule="evenodd" fill-rule="evenodd"/>
    <path id="svg_12" d="m111.843994,48.125c0,0 -0.125,-1.015999 -0.141006,-1.390999c-0.046997,-0.890999 0.087006,-0.947998 0.109009,-1l0.125,-0.155998c0.082993,-0.127007 0.511993,-0.791 1.281998,-1.945c0.535995,-0.805 0.830002,-1.380005 1.005997,-1.746002l0.166992,-0.348999c0.01001,-0.024002 0.022003,-0.043999 0.033005,-0.063004c0.126007,-0.222 0.317001,-0.413002 0.888,-1.142998c0.572006,-0.730003 2.824997,-3.141998 4.602005,-5.459c1.778,-2.316002 4.188995,-5.841003 5.14299,-7.522003c0.953003,-1.681999 2.381012,-4.951996 2.190002,-8.632999c-0.190002,-3.681 -2.729996,-5.809998 -2.729996,-5.809998s-0.475006,-2.506001 -3.744995,-4.632c-2.753998,-1.792 -5.713989,-0.763 -5.713989,-0.763s-1.365005,-1.777 -3.682007,-1.713001c-2.317001,0.063 -3.459991,1.649002 -3.459991,1.649002s-2.506012,-1.490002 -5.680008,0.189999c-2.738007,1.450001 -3.078995,2.792999 -3.460007,3.460999c-1.967987,1.016003 -3.237991,3.047001 -3.839996,5.045002c-0.602997,2 -0.888992,4.255001 0.730011,8.507999s5.077988,8.600998 6.284988,10.220001c1.205994,1.618996 4.983002,6.348 5.156998,6.555c0.177002,0.206001 2.048004,3.443001 2.223007,3.728996c0.153,0.250999 0.167999,0.265999 0.324997,0.484001c0,0.001999 0.203003,0.234001 0.203003,0.234001l-0.031006,2.280998c0,0 -0.437988,0 -0.43399,0.598999c0.006989,0.341003 -0.009003,0.746002 0,1.031006c0.00499,0.177994 0.00499,0.302994 0.020996,0.427994c-0.046005,0.055 -0.233994,0.707001 0.319,0.707001c0.104004,-0.007996 0.600998,0.028999 1.031006,0.015999c0.432999,-0.011993 1.18399,0.001007 1.375,-0.061996c0.296997,0 0.25,-0.5 0.061996,-0.75c0,-0.189003 -0.003998,-0.403 -0.016006,-0.655998c-0.013992,-0.247002 0.070999,-0.651001 0.031006,-0.859001c0.024994,-0.469002 -0.374008,-0.485001 -0.374008,-0.485001zm-1.671997,0.015999l-0.030991,-2.109001c0.079987,-0.117996 0.077988,-0.093994 0.182999,-0.099998s0.097992,0.396004 0.097992,0.396004l0.703003,-0.016006c0,0 0.031006,-0.358994 0.087997,-0.354996s0.178009,-0.066002 0.178009,-0.066002s0.047989,1.193001 0.046997,2.234001c-0.266998,-0.037003 -0.985001,0.015999 -1.266006,0.015999z" fill="#B1B3B6"/>
    <path id="svg_13" d="m32.541,71.362c0,0 -0.085999,-0.701996 -0.097,-0.960999c-0.031998,-0.615997 0.059998,-0.654999 0.075996,-0.691002l0.086006,-0.108002c0.056999,-0.087997 0.353996,-0.545998 0.885994,-1.343994c0.371002,-0.557007 0.574005,-0.955002 0.696007,-1.208l0.114998,-0.241005c0.006996,-0.016998 0.014999,-0.030998 0.022995,-0.043999c0.087006,-0.153 0.219002,-0.284996 0.614006,-0.790001c0.395996,-0.504997 1.952995,-2.171997 3.181999,-3.774002c1.228996,-1.600998 2.895996,-4.037994 3.555,-5.200996c0.659996,-1.163002 1.645996,-3.422997 1.514999,-5.969002c-0.132004,-2.544998 -1.887001,-4.016998 -1.887001,-4.016998s-0.329002,-1.732002 -2.588997,-3.202003c-1.904007,-1.238998 -3.950005,-0.528 -3.950005,-0.528s-0.944,-1.228996 -2.545998,-1.184998c-1.602005,0.042999 -2.391998,1.139999 -2.391998,1.139999s-1.733002,-1.029999 -3.927002,0.132004c-1.892998,1.001999 -2.128998,1.931 -2.392998,2.392998c-1.361,0.702003 -2.239006,2.107002 -2.655006,3.487999c-0.417,1.383003 -0.613998,2.942001 0.505005,5.882004c1.119995,2.940994 3.509995,5.946999 4.345001,7.065994c0.833,1.120003 3.445,4.389 3.564995,4.532005c0.122002,0.142998 1.416,2.379997 1.537003,2.577995c0.105003,0.174004 0.115997,0.184006 0.223999,0.334999c0,0.001007 0.139999,0.161003 0.139999,0.161003l-0.020996,1.578003c0,0 -0.303001,0 -0.300003,0.413994c0.003998,0.236 -0.006996,0.516006 0,0.713005c0.002998,0.123001 0.002998,0.209 0.014,0.295998c-0.031998,0.038002 -0.162003,0.488998 0.220001,0.488998c0.071999,-0.005997 0.416,0.020004 0.712997,0.010002c0.299004,-0.008003 0.819,0.000999 0.951004,-0.042999c0.204994,0 0.172997,-0.345001 0.042999,-0.518997c0,-0.131004 -0.002998,-0.279007 -0.011002,-0.453003c-0.009003,-0.170998 0.050003,-0.449997 0.022003,-0.594002c0.016998,-0.324997 -0.259003,-0.334999 -0.259003,-0.334999zm-1.155998,0.010002l-0.021004,-1.458c0.056,-0.081001 0.054001,-0.065002 0.125999,-0.069c0.073006,-0.003998 0.068001,0.274002 0.068001,0.274002l0.486,-0.011002c0,0 0.022003,-0.249001 0.061005,-0.246002s0.122993,-0.045998 0.122993,-0.045998s0.033005,0.824997 0.032005,1.544998c-0.184006,-0.025002 -0.68,0.011002 -0.875,0.011002z" fill="#B1B3B6"/>
   </g>
  </g>
  <g id="Red_Elements">
   <g id="svg_14">
    <path id="svg_15" d="m101.932007,140.412003c-1.352997,0 -2.798004,0.817993 -2.798004,3.119995c0,1.699997 1.099014,2.798004 2.798004,2.798004c1.76001,0 2.854004,-1.113007 2.854004,-2.906006c0,-0.741989 -0.257996,-1.440994 -0.749008,-2.024994c-0.546005,-0.647003 -1.274002,-0.987 -2.104996,-0.987z" fill="#A90F3D"/>
    <g id="svg_16">
     <path id="svg_17" d="m62.642998,151.427002c-2.155998,-1.237 -5.176994,-1.837997 -9.235001,-1.837997c-1.312996,0 -3.106995,0.070999 -5.487,0.216995c-1.362,0.083008 -2.473,0.143005 -3.323997,0.175995l0,-9.380997l-4.418999,0l0,31.957001c0,3.042999 1.004997,5.442001 2.989998,7.130997c1.918999,1.634003 4.411003,2.462997 7.405998,2.462997l6.473,0c3.455002,0 5.936005,-0.75 7.585007,-2.291992c1.651993,-1.544998 2.489998,-4.074005 2.489998,-7.516006l0,-12.518997c0,-3.940994 -1.515999,-6.770004 -4.479004,-8.397995zm-5.543999,26.302002l-6.098,0c-5.675003,0 -6.403999,-2.820999 -6.403999,-5.278l0,-17.852997l12.556,0c3.835999,0 5.547997,1.645996 5.547997,5.334l0,12.143997c0,2.15799 -0.403,3.707001 -1.163994,4.481003c-0.754005,0.766998 -2.288002,1.171997 -4.438004,1.171997z" fill="#A90F3D"/>
     <path id="svg_18" d="m76.449997,159.679001l0,22.470993l4.473999,0l0,-22.475006c0,-2.248001 0.546997,-3.740997 1.585007,-4.410995c0.595993,-0.354004 1.925995,-0.776001 4.884995,-0.776001l1.768997,0.018997l0,-4.490997l-3.345001,0c-6.128998,0.001007 -9.367996,3.341003 -9.367996,9.66301z" fill="#A90F3D"/>
     <rect id="svg_19" height="32.134" width="4.421" fill="#A90F3D" y="150.017" x="99.775"/>
     <path id="svg_20" d="m115.505005,157.867004c0,3.937988 0.875992,6.666992 2.705994,8.371994c1.425003,1.257996 3.524994,1.895004 6.244995,1.895004c0.675003,0 1.70401,-0.046005 3.059006,-0.137009c1.309006,-0.085999 2.277008,-0.130997 2.880005,-0.130997c1.735992,0 2.994995,0.311996 3.720001,0.904999c0.927994,0.796005 1.397995,2.358002 1.397995,4.641998c0,3.026001 -1.186996,4.31601 -3.970001,4.31601l-16.037994,0l0,4.421997l15.977997,0c5.449997,0 8.451996,-3.102997 8.451996,-8.738007c0,-3.870987 -1.014999,-6.654999 -3.005005,-8.264999c-1.513992,-1.253998 -3.703995,-1.862 -6.695999,-1.862c-0.67099,0 -1.640991,0.035004 -2.963989,0.108002c-1.244003,0.070007 -2.154999,0.106003 -2.707001,0.106003c-2.054001,0 -3.057007,-0.376007 -3.487,-0.658005c-0.775009,-0.55899 -1.151001,-1.606003 -1.151001,-3.200989c0,-2.768005 0.580002,-3.813004 0.927994,-4.189011c0.32901,-0.358002 1.277008,-0.959 3.923004,-0.959l15.373001,0l0,-4.473999l-15.425003,0c-3.442993,-0.001999 -9.218994,1.016998 -9.218994,7.848007z" fill="#A90F3D"/>
    </g>
   </g>
   <rect id="svg_21" height="1.807" width="267.751" fill="#A90F3D" clip-rule="evenodd" fill-rule="evenodd" y="119.844" x="0.239"/>
   <rect id="svg_22" height="1.808" width="267.751" fill="#A90F3D" clip-rule="evenodd" fill-rule="evenodd" y="106.568" x="0.239"/>
   <path id="svg_23" d="m213.415009,92.184998l0.321991,0.005005l0.472015,-1.178009l-1.067017,0l-2.298981,-3.62999l-1.688995,0l-1.409027,-12.334007l0.844025,0l0,-1.147995l-0.844025,0l-1.088989,-9.037003l3.208008,0l1.417999,-2.790001l-1.002991,0l-0.028015,-3.153999l-1.661987,-0.223l0,-0.575996l1.690979,-1.720001l0,-8.606003l21.012024,-39.23l8.61499,-5.865997c0.390991,0.490997 1.544006,0.503998 2.01001,-0.499001c0.332977,-0.774002 0.155975,-1.515003 -0.854004,-1.791999c-0.843994,-0.223 -1.468994,0.508998 -1.468994,0.508998c-3.944,0.214001 -12.976013,1.682999 -12.976013,1.682999l-2.075989,3.25l0.666992,3.062l-20.282013,27.981998l-1.690002,5.165001l-0.845001,-3.729996l-3.516998,-0.981003l-2.999985,-0.509003l-2.5,0.764l-2.167007,2.928001l-1.492996,5.744003l-3.662003,2.009995l0,6.885002l3.662003,1.433998l0,3.528l1.727005,1.943001l-5.130005,0l1.417999,2.790001l4.128998,0l-2.427002,22.233002l-1.598999,0l-1.636002,3.914993l-1.177002,0l0.472,1.178009l0.424011,-0.005997l0,15.853989l3.098999,0l0.034988,-10.946991c0,0 2.032013,-3.397003 3.046005,-4.542007c-0.056992,2.236008 0,2.294006 0,2.294006l0.281998,0.858994l0,12.230011l1.969009,0l0,-11.944l1.692001,-3.729004l10.014999,0l4.506989,6.813995l0,9.177002l2.817017,0l0.036987,-16.065002zm-17.437012,-16.559998l0,-0.014999l0.757004,0.417999l-4.559006,6.783997l-0.241989,-0.237999l0.714996,-6.948997l3.328995,0zm-3.179993,-1.915001l0.713989,-7.329002l3.040009,7.023003l-0.554001,0.306l-3.199997,0zm5.333008,2.844002l1.264984,0l1.057007,0l4.095001,8.175003l-1.109985,1.794998l-8.209015,0l-1.164993,-1.848999l4.067001,-8.121002zm8.30899,6.306999l-4.536011,-6.75l0.908997,-0.501999l0,0.014999l3.438019,0l0.654999,6.776001l-0.466003,0.460999zm-4.14801,-9.428001l3.131989,-7.236l0.688019,7.513l-3.317017,0l-0.502991,-0.277zm2.549011,-8.57l-3.485016,8.053001l-0.251984,-0.139l-1.708008,0l-1.708984,0l-0.200012,0.110001l-3.464005,-8.004997l5.345016,-0.020004l5.472992,0l0,0.000999z" fill="#A90F3D"/>
   <path id="svg_24" d="m135.369003,107.188004l4.778,0c-11.406998,-7.125 -29.401001,-24.537003 -43.270996,-39.312004c-0.875,-4.375 -1.267014,-8.162003 -2,-11.75c12.125992,16.021004 25.362,28.004997 35.319992,36.008995c7.554001,6.072006 14.123001,10.48201 18.302994,13.115005c1.382004,0.871002 2.321014,1.483002 3.015015,1.938004l6.891998,0c-0.443008,-0.214005 -0.848007,-0.389008 -1.042999,-0.503998l0.001999,-0.005005c-0.009003,-0.001999 -0.331009,-0.175995 -0.465012,-0.242004c-4.337997,-2.330002 -38.020996,-21.269989 -63.85199,-58.620995c-1.171997,-2.065002 -1.906006,-3.912003 -2.671997,-5.690002c0,-7.121002 0.25,-9.5 0.25,-9.5l3.204987,-3.865997l-29.914993,-2.798004l-6.865997,5.848999l2.205994,1.653l0,9.155006c0,0 -1.789993,6.097 -2.879997,12.756996l-0.655998,7.681999c-3.716003,7.063004 -9.623001,17.850998 -17.898003,31.686996c-2.202995,3.682999 -4.327995,6.275009 -6.359001,7.779007c-2.950996,-2.026001 -5.183998,-5.557007 -6.713997,-8.706009c-0.564003,-3.477997 -1.653999,-6.877991 -2.506004,-8.853989c0,-2.342003 -0.079994,-3.175003 -0.079994,-3.175003l1.047997,-1.001999l-9.825996,-0.919006l-2.255005,1.922005l0.723999,0.542l0,3.007996c0,0 -1.850998,8.865005 -1.931,9.910004c-0.080994,1.044006 -0.242996,10.222 -0.242996,10.222l-0.012001,1.404999l5.5,-0.041992c0.083,-3.583008 0.249001,-8.986008 0.348999,-9.701004c0.065002,-0.460007 1.457001,-0.615005 2.859001,-0.576004c0.872002,1.863998 1.906998,3.662003 3.112,5.125c0.07,1.820007 0.048004,3.942001 0.096001,5.235001l3.916,-0.042999l-0.079002,-2.173004c0.342003,0.125 0.690002,0.229004 1.050003,0.290009c0.319,0.054001 0.639999,0.080994 0.961998,0.080994c1.305,0 2.780998,-0.378998 4.319,-1.173996c1.269005,0.714996 2.658005,1.179993 4.173004,1.276993c0.197998,0.013 0.396996,0.019012 0.597,0.019012c5.148994,0 10.769997,-3.66301 16.702995,-11.563004c-0.327995,5.677994 -0.641998,14.117996 -0.641998,14.117996l19.228996,0.061996l-0.125,-31.75c0,0 8.25,-0.375 15.520996,0.083c0,7.12101 0.817001,31.704002 0.817001,31.704002l14.162003,-0.037994c0,0 -2.082993,-17.883011 -4.391998,-34.839005c16.833008,17.690002 28.709,28.761993 37.574005,34.216003zm-119.709,-13.421997c0,0 -0.139,-2.044998 0.204994,-3.914993c0.366005,1.220993 0.825005,2.608002 1.379005,4.041c-0.903,-0.068008 -1.584,-0.126007 -1.584,-0.126007zm2.702995,0.205994c-0.862999,-2.173996 -1.514,-4.289993 -1.950996,-5.876999c0.368996,-0.735001 0.902,-1.25 1.685997,-1.262009c2.009003,0.047012 2.870003,1.674011 3.300003,7.269012c-0.573006,0.020996 -1.838005,-0.048004 -3.035004,-0.130005zm1.164001,2.660995c0.978996,0.105011 1.756996,0.302002 1.775002,0.546005c0.014999,0.201996 0.060997,1.320999 0.117996,2.768997c-0.695,-1.011002 -1.324997,-2.141998 -1.892998,-3.315002zm7.111,7.373001c-0.440002,-0.07399 -0.865997,-0.209991 -1.278999,-0.395996l-0.403,-7.177994c1.429001,2.508987 3.291,5.007996 5.603996,6.692993c-1.352997,0.796997 -2.663994,1.093994 -3.921997,0.880997zm26.838997,-14.710999c-0.015999,0.268005 -0.030998,0.533997 -0.045998,0.800003c-5.539001,8.494003 -11.559998,14.470001 -17.438004,14.084c-1.139999,-0.072998 -2.207993,-0.384995 -3.203995,-0.873001c2.360001,-1.487 4.806,-3.951004 6.961998,-7.556c6.593002,-11.022995 11.701004,-19.537003 15.385002,-25.862999l-1.659004,19.407997zm31.834999,-33.856995c-2.19899,-2.449005 -5.172989,-5.673004 -7,-7.75c4.438004,-1 6.688004,3.311996 7,7.75zm-13.794998,12.57c0,0 -1.141998,-13.508003 3.294998,-18.008003c3.065002,3.499001 7.882004,7.474998 12,12c0.52301,3.128998 0.678009,5.128998 0.887009,7.024002c-11.699005,-0.774002 -16.182007,-1.015999 -16.182007,-1.015999z" fill="#A90F3D"/>
  </g>
 </g>
</svg>

